<svg width="66" height="67" viewBox="0 0 66 67" fill="none" xmlns="http://www.w3.org/2000/svg">
<path d="M64.4167 10.0445L56.2973 1.92504C55.5994 1.25964 54.6721 0.888428 53.7078 0.888428C52.7436 0.888428 51.8163 1.25964 51.1184 1.92504L43.8987 9.16671H5.16672C4.00272 9.16671 2.88638 9.62911 2.06331 10.4522C1.24023 11.2753 0.777832 12.3916 0.777832 13.5556V61.8334C0.777832 62.9974 1.24023 64.1137 2.06331 64.9368C2.88638 65.7599 4.00272 66.2223 5.16672 66.2223H53.4445C54.6085 66.2223 55.7248 65.7599 56.5479 64.9368C57.371 64.1137 57.8334 62.9974 57.8334 61.8334V21.8067L64.4167 15.2234C65.1028 14.5363 65.4882 13.6049 65.4882 12.6339C65.4882 11.6629 65.1028 10.7316 64.4167 10.0445ZM33.3214 40.1742L24.1267 42.215L26.3212 33.1081L47.2781 12.1073L54.3662 19.1953L33.3214 40.1742ZM56.7362 16.6937L49.6481 9.6056L53.7078 5.54588L60.7959 12.6339L56.7362 16.6937Z" fill="url(#paint0_linear_188_168)"/>
<defs>
<linearGradient id="paint0_linear_188_168" x1="33.133" y1="0.888428" x2="33.133" y2="66.2223" gradientUnits="userSpaceOnUse">
<stop stop-color="#FA897B"/>
<stop offset="1" stop-color="#CCABD8" stop-opacity="0.85"/>
</linearGradient>
</defs>
</svg>
