<svg width="471" height="243" viewBox="0 0 471 243" fill="none" xmlns="http://www.w3.org/2000/svg">
<path d="M178.132 204.4C175.759 204.4 173.572 204.08 171.572 203.44C169.599 202.773 167.906 201.827 166.492 200.6C165.079 199.347 163.986 197.813 163.212 196C162.466 194.187 162.092 192.133 162.092 189.84C162.092 187.733 162.506 185.8 163.332 184.04C164.159 182.253 165.319 180.707 166.812 179.4C168.332 178.093 170.132 177.08 172.212 176.36C174.292 175.64 176.586 175.28 179.092 175.28C180.986 175.28 182.746 175.493 184.372 175.92C185.999 176.347 187.426 176.907 188.652 177.6C189.906 178.293 190.946 179.04 191.772 179.84L187.052 185C186.386 184.467 185.652 183.987 184.852 183.56C184.052 183.133 183.172 182.787 182.212 182.52C181.252 182.253 180.172 182.12 178.972 182.12C177.746 182.12 176.599 182.32 175.532 182.72C174.492 183.093 173.586 183.627 172.812 184.32C172.039 184.987 171.439 185.8 171.012 186.76C170.586 187.693 170.372 188.72 170.372 189.84C170.372 191.173 170.599 192.32 171.052 193.28C171.506 194.24 172.132 195.04 172.932 195.68C173.732 196.32 174.652 196.8 175.692 197.12C176.759 197.413 177.879 197.56 179.052 197.56C180.119 197.56 181.092 197.44 181.972 197.2C182.879 196.96 183.652 196.627 184.292 196.2C184.959 195.773 185.479 195.267 185.852 194.68C186.226 194.093 186.412 193.44 186.412 192.72V191.76L187.492 193.6H178.212V187.92H193.732C193.759 188.267 193.786 188.733 193.812 189.32C193.839 189.88 193.866 190.427 193.892 190.96C193.919 191.467 193.932 191.8 193.932 191.96C193.932 193.907 193.546 195.653 192.772 197.2C192.026 198.72 190.946 200.013 189.532 201.08C188.146 202.147 186.492 202.973 184.572 203.56C182.652 204.12 180.506 204.4 178.132 204.4ZM202.446 204V176H217.166C219.406 176 221.313 176.373 222.886 177.12C224.486 177.867 225.713 178.92 226.566 180.28C227.419 181.613 227.846 183.2 227.846 185.04C227.846 186.907 227.393 188.56 226.486 190C225.579 191.44 224.339 192.573 222.766 193.4C221.193 194.2 219.406 194.6 217.406 194.6H209.886V204H202.446ZM220.286 204L211.806 191.36L220.006 190.36L229.286 204H220.286ZM209.886 188.92H216.406C217.099 188.92 217.713 188.787 218.246 188.52C218.779 188.227 219.206 187.84 219.526 187.36C219.846 186.853 220.006 186.253 220.006 185.56C220.006 184.84 219.833 184.253 219.486 183.8C219.166 183.32 218.713 182.96 218.126 182.72C217.566 182.48 216.913 182.36 216.166 182.36H209.886V188.92ZM233.56 204L246.28 176H253.04L265.72 204H257.76L251.28 189.64C250.986 189 250.72 188.4 250.48 187.84C250.266 187.253 250.066 186.693 249.88 186.16C249.693 185.627 249.506 185.093 249.32 184.56C249.16 184 249 183.427 248.84 182.84L250.32 182.8C250.133 183.44 249.96 184.04 249.8 184.6C249.64 185.133 249.453 185.667 249.24 186.2C249.026 186.733 248.8 187.28 248.56 187.84C248.32 188.4 248.066 189 247.8 189.64L241.36 204H233.56ZM239.64 199.6L242.04 194H257.2L258.76 199.6H239.64ZM271.977 204V176H285.857C288.284 176 290.457 176.36 292.377 177.08C294.324 177.8 295.977 178.813 297.337 180.12C298.697 181.4 299.737 182.893 300.457 184.6C301.204 186.28 301.577 188.08 301.577 190C301.577 191.947 301.204 193.773 300.457 195.48C299.737 197.187 298.697 198.68 297.337 199.96C295.977 201.213 294.324 202.2 292.377 202.92C290.457 203.64 288.284 204 285.857 204H271.977ZM279.897 198.96L278.657 197.16H285.657C286.937 197.16 288.071 196.973 289.057 196.6C290.044 196.2 290.857 195.667 291.497 195C292.137 194.333 292.617 193.573 292.937 192.72C293.284 191.867 293.457 190.96 293.457 190C293.457 189.04 293.284 188.133 292.937 187.28C292.617 186.427 292.124 185.667 291.457 185C290.817 184.333 290.004 183.813 289.017 183.44C288.057 183.04 286.937 182.84 285.657 182.84H278.537L279.897 181.12V198.96ZM323.94 204.24C321.22 204.24 318.806 203.707 316.7 202.64C314.62 201.573 312.993 200.093 311.82 198.2C310.673 196.307 310.1 194.16 310.1 191.76V176H318.1V191.52C318.1 192.693 318.353 193.72 318.86 194.6C319.366 195.48 320.06 196.16 320.94 196.64C321.82 197.12 322.82 197.36 323.94 197.36C325.113 197.36 326.153 197.12 327.06 196.64C327.993 196.16 328.713 195.48 329.22 194.6C329.753 193.72 330.02 192.693 330.02 191.52V176H337.78V191.76C337.78 194.16 337.193 196.307 336.02 198.2C334.873 200.093 333.26 201.573 331.18 202.64C329.126 203.707 326.713 204.24 323.94 204.24ZM343.169 204L355.889 176H362.649L375.329 204H367.369L360.889 189.64C360.596 189 360.329 188.4 360.089 187.84C359.876 187.253 359.676 186.693 359.489 186.16C359.302 185.627 359.116 185.093 358.929 184.56C358.769 184 358.609 183.427 358.449 182.84L359.929 182.8C359.742 183.44 359.569 184.04 359.409 184.6C359.249 185.133 359.062 185.667 358.849 186.2C358.636 186.733 358.409 187.28 358.169 187.84C357.929 188.4 357.676 189 357.409 189.64L350.969 204H343.169ZM349.249 199.6L351.649 194H366.809L368.369 199.6H349.249ZM387.155 204V182.84H377.075V176H405.395V182.84H395.075V204H387.155ZM413.266 204V176H436.746V182.52H420.866V197.48H437.346V204H413.266ZM417.266 192.88V186.72H435.146V192.88H417.266Z" fill="#CCABD8"/>
<path d="M26.793 159V89H46.593V159H26.793ZM35.493 134.1V118.2H79.093V134.1H35.493ZM36.293 106.1V89H82.993V106.1H36.293ZM89.4398 159L121.24 89H138.14L169.84 159H149.94L133.74 123.1C133.007 121.5 132.34 120 131.74 118.6C131.207 117.133 130.707 115.733 130.24 114.4C129.773 113.067 129.307 111.733 128.84 110.4C128.44 109 128.04 107.567 127.64 106.1L131.34 106C130.873 107.6 130.44 109.1 130.04 110.5C129.64 111.833 129.173 113.167 128.64 114.5C128.107 115.833 127.54 117.2 126.94 118.6C126.34 120 125.707 121.5 125.04 123.1L108.94 159H89.4398ZM104.64 148L110.64 134H148.54L152.44 148H104.64ZM214.284 160C208.751 160 203.718 159.467 199.184 158.4C194.651 157.333 190.618 155.867 187.084 154C183.551 152.133 180.384 150 177.584 147.6L187.184 133.1C192.051 137.1 196.918 139.867 201.784 141.4C206.651 142.867 211.184 143.6 215.384 143.6C217.051 143.6 218.684 143.467 220.284 143.2C221.951 142.867 223.351 142.333 224.484 141.6C225.618 140.867 226.184 139.8 226.184 138.4C226.184 137.467 225.884 136.7 225.284 136.1C224.684 135.433 223.851 134.9 222.784 134.5C221.784 134.033 220.584 133.667 219.184 133.4C217.851 133.067 216.351 132.8 214.684 132.6C213.018 132.333 211.251 132.1 209.384 131.9C204.984 131.3 201.051 130.4 197.584 129.2C194.118 128 191.184 126.5 188.784 124.7C186.384 122.9 184.551 120.8 183.284 118.4C182.084 115.933 181.484 113.1 181.484 109.9C181.484 106.367 182.318 103.2 183.984 100.4C185.651 97.5333 187.984 95.1333 190.984 93.2C193.984 91.2 197.418 89.7 201.284 88.7C205.218 87.7 209.351 87.2 213.684 87.2C218.818 87.2 223.284 87.6667 227.084 88.6C230.884 89.4667 234.184 90.7 236.984 92.3C239.784 93.8333 242.151 95.5667 244.084 97.5L234.084 110C232.284 108.667 230.218 107.533 227.884 106.6C225.618 105.667 223.251 104.967 220.784 104.5C218.318 103.967 215.951 103.7 213.684 103.7C211.351 103.7 209.318 103.867 207.584 104.2C205.918 104.533 204.551 105.067 203.484 105.8C202.484 106.467 201.984 107.4 201.984 108.6C201.984 109.667 202.484 110.567 203.484 111.3C204.551 111.967 205.851 112.533 207.384 113C208.984 113.4 210.618 113.733 212.284 114C214.018 114.2 215.584 114.4 216.984 114.6C220.851 115.067 224.551 115.733 228.084 116.6C231.684 117.467 234.851 118.7 237.584 120.3C240.384 121.833 242.551 123.9 244.084 126.5C245.684 129.1 246.484 132.433 246.484 136.5C246.484 141.5 245.051 145.767 242.184 149.3C239.384 152.767 235.551 155.433 230.684 157.3C225.818 159.1 220.351 160 214.284 160ZM285.927 159V106.1H260.727V89H331.527V106.1H305.727V159H285.927Z" fill="url(#paint0_linear_140_71)"/>
<mask id="mask0_140_71" style="mask-type:alpha" maskUnits="userSpaceOnUse" x="421" y="132" width="23" height="23">
<path d="M435.031 134.617L441.299 138.236L433.836 142.315L439.06 145.331L423.957 152.189L430.628 144.656L425.753 141.842L435.031 134.617Z" fill="white" stroke="white" stroke-width="4" stroke-linejoin="round"/>
</mask>
<g mask="url(#mask0_140_71)">
<path d="M429.453 129L446.167 138.65L433.714 160.218L417 150.568L429.453 129Z" fill="url(#paint1_linear_140_71)"/>
</g>
<rect x="26" y="185" width="127" height="8" rx="4" fill="#CCABD8"/>
<path d="M433.926 112.46L389.138 98.5678C386.697 97.8107 384.064 97.8107 381.625 98.5678L336.835 112.46C333.055 113.633 333.055 118.679 336.835 119.851L344.643 122.273C342.93 124.411 341.877 127.019 341.772 129.876C340.226 130.771 339.137 132.385 339.137 134.313C339.137 136.06 340.049 137.531 341.363 138.471L337.264 157.094C336.907 158.713 338.127 160.25 339.77 160.25H348.779C350.424 160.25 351.644 158.713 351.287 157.094L347.188 138.471C348.502 137.531 349.414 136.06 349.414 134.313C349.414 132.437 348.375 130.868 346.899 129.957C347.021 127.522 348.254 125.369 350.221 124.004L381.623 133.745C383.078 134.196 385.868 134.758 389.136 133.745L433.926 119.853C437.707 118.679 437.707 113.634 433.926 112.46ZM390.645 138.704C386.064 140.124 382.161 139.34 380.114 138.704L356.828 131.482L354.552 149.875C354.552 155.606 368.354 160.25 385.38 160.25C402.407 160.25 416.209 155.606 416.209 149.875L413.932 131.481L390.645 138.704Z" fill="url(#paint2_linear_140_71)"/>
<defs>
<linearGradient id="paint0_linear_140_71" x1="176" y1="0" x2="176" y2="243" gradientUnits="userSpaceOnUse">
<stop offset="0.1875" stop-color="#FA897B"/>
<stop offset="0.848958" stop-color="#CCABD8" stop-opacity="0.85"/>
</linearGradient>
<linearGradient id="paint1_linear_140_71" x1="437.81" y1="133.825" x2="425.357" y2="155.393" gradientUnits="userSpaceOnUse">
<stop stop-color="#FA897B"/>
<stop offset="1" stop-color="#CCABD8" stop-opacity="0.85"/>
</linearGradient>
<linearGradient id="paint2_linear_140_71" x1="385.381" y1="98" x2="385.381" y2="160.25" gradientUnits="userSpaceOnUse">
<stop stop-color="#FA897B"/>
<stop offset="1" stop-color="#CCABD8" stop-opacity="0.85"/>
</linearGradient>
</defs>
</svg>
