<svg width="117" height="58" viewBox="0 0 117 58" fill="none" xmlns="http://www.w3.org/2000/svg">
<path d="M46.0331 49.1C45.4398 49.1 44.8931 49.02 44.3931 48.86C43.8998 48.6933 43.4764 48.4567 43.1231 48.15C42.7698 47.8367 42.4964 47.4533 42.3031 47C42.1164 46.5467 42.0231 46.0333 42.0231 45.46C42.0231 44.9333 42.1264 44.45 42.3331 44.01C42.5398 43.5633 42.8298 43.1767 43.2031 42.85C43.5831 42.5233 44.0331 42.27 44.5531 42.09C45.0731 41.91 45.6464 41.82 46.2731 41.82C46.7464 41.82 47.1864 41.8733 47.5931 41.98C47.9998 42.0867 48.3564 42.2267 48.6631 42.4C48.9764 42.5733 49.2364 42.76 49.4431 42.96L48.2631 44.25C48.0964 44.1167 47.9131 43.9967 47.7131 43.89C47.5131 43.7833 47.2931 43.6967 47.0531 43.63C46.8131 43.5633 46.5431 43.53 46.2431 43.53C45.9364 43.53 45.6498 43.58 45.3831 43.68C45.1231 43.7733 44.8964 43.9067 44.7031 44.08C44.5098 44.2467 44.3598 44.45 44.2531 44.69C44.1464 44.9233 44.0931 45.18 44.0931 45.46C44.0931 45.7933 44.1498 46.08 44.2631 46.32C44.3764 46.56 44.5331 46.76 44.7331 46.92C44.9331 47.08 45.1631 47.2 45.4231 47.28C45.6898 47.3533 45.9698 47.39 46.2631 47.39C46.5298 47.39 46.7731 47.36 46.9931 47.3C47.2198 47.24 47.4131 47.1567 47.5731 47.05C47.7398 46.9433 47.8698 46.8167 47.9631 46.67C48.0564 46.5233 48.1031 46.36 48.1031 46.18V45.94L48.3731 46.4H46.0531V44.98H49.9331C49.9398 45.0667 49.9464 45.1833 49.9531 45.33C49.9598 45.47 49.9664 45.6067 49.9731 45.74C49.9798 45.8667 49.9831 45.95 49.9831 45.99C49.9831 46.4767 49.8864 46.9133 49.6931 47.3C49.5064 47.68 49.2364 48.0033 48.8831 48.27C48.5364 48.5367 48.1231 48.7433 47.6431 48.89C47.1631 49.03 46.6264 49.1 46.0331 49.1ZM52.1115 49V42H55.7915C56.3515 42 56.8282 42.0933 57.2215 42.28C57.6215 42.4667 57.9282 42.73 58.1415 43.07C58.3549 43.4033 58.4615 43.8 58.4615 44.26C58.4615 44.7267 58.3482 45.14 58.1215 45.5C57.8949 45.86 57.5849 46.1433 57.1915 46.35C56.7982 46.55 56.3515 46.65 55.8515 46.65H53.9715V49H52.1115ZM56.5715 49L54.4515 45.84L56.5015 45.59L58.8215 49H56.5715ZM53.9715 45.23H55.6015C55.7749 45.23 55.9282 45.1967 56.0615 45.13C56.1949 45.0567 56.3015 44.96 56.3815 44.84C56.4615 44.7133 56.5015 44.5633 56.5015 44.39C56.5015 44.21 56.4582 44.0633 56.3715 43.95C56.2915 43.83 56.1782 43.74 56.0315 43.68C55.8915 43.62 55.7282 43.59 55.5415 43.59H53.9715V45.23ZM59.8899 49L63.0699 42H64.7599L67.9299 49H65.9399L64.3199 45.41C64.2465 45.25 64.1799 45.1 64.1199 44.96C64.0665 44.8133 64.0165 44.6733 63.9699 44.54C63.9232 44.4067 63.8765 44.2733 63.8299 44.14C63.7899 44 63.7499 43.8567 63.7099 43.71L64.0799 43.7C64.0332 43.86 63.9899 44.01 63.9499 44.15C63.9099 44.2833 63.8632 44.4167 63.8099 44.55C63.7565 44.6833 63.6999 44.82 63.6399 44.96C63.5799 45.1 63.5165 45.25 63.4499 45.41L61.8399 49H59.8899ZM61.4099 47.9L62.0099 46.5H65.7999L66.1899 47.9H61.4099ZM69.4943 49V42H72.9643C73.571 42 74.1143 42.09 74.5943 42.27C75.081 42.45 75.4943 42.7033 75.8343 43.03C76.1743 43.35 76.4343 43.7233 76.6143 44.15C76.801 44.57 76.8943 45.02 76.8943 45.5C76.8943 45.9867 76.801 46.4433 76.6143 46.87C76.4343 47.2967 76.1743 47.67 75.8343 47.99C75.4943 48.3033 75.081 48.55 74.5943 48.73C74.1143 48.91 73.571 49 72.9643 49H69.4943ZM71.4743 47.74L71.1643 47.29H72.9143C73.2343 47.29 73.5177 47.2433 73.7643 47.15C74.011 47.05 74.2143 46.9167 74.3743 46.75C74.5343 46.5833 74.6543 46.3933 74.7343 46.18C74.821 45.9667 74.8643 45.74 74.8643 45.5C74.8643 45.26 74.821 45.0333 74.7343 44.82C74.6543 44.6067 74.531 44.4167 74.3643 44.25C74.2043 44.0833 74.001 43.9533 73.7543 43.86C73.5143 43.76 73.2343 43.71 72.9143 43.71H71.1343L71.4743 43.28V47.74ZM82.4849 49.06C81.8049 49.06 81.2015 48.9267 80.6749 48.66C80.1549 48.3933 79.7482 48.0233 79.4549 47.55C79.1682 47.0767 79.0249 46.54 79.0249 45.94V42H81.0249V45.88C81.0249 46.1733 81.0882 46.43 81.2149 46.65C81.3415 46.87 81.5149 47.04 81.7349 47.16C81.9549 47.28 82.2049 47.34 82.4849 47.34C82.7782 47.34 83.0382 47.28 83.2649 47.16C83.4982 47.04 83.6782 46.87 83.8049 46.65C83.9382 46.43 84.0049 46.1733 84.0049 45.88V42H85.9449V45.94C85.9449 46.54 85.7982 47.0767 85.5049 47.55C85.2182 48.0233 84.8149 48.3933 84.2949 48.66C83.7815 48.9267 83.1782 49.06 82.4849 49.06ZM87.2922 49L90.4722 42H92.1622L95.3322 49H93.3422L91.7222 45.41C91.6489 45.25 91.5822 45.1 91.5222 44.96C91.4689 44.8133 91.4189 44.6733 91.3722 44.54C91.3256 44.4067 91.2789 44.2733 91.2322 44.14C91.1922 44 91.1522 43.8567 91.1122 43.71L91.4822 43.7C91.4356 43.86 91.3922 44.01 91.3522 44.15C91.3122 44.2833 91.2656 44.4167 91.2122 44.55C91.1589 44.6833 91.1022 44.82 91.0422 44.96C90.9822 45.1 90.9189 45.25 90.8522 45.41L89.2422 49H87.2922ZM88.8122 47.9L89.4122 46.5H93.2022L93.5922 47.9H88.8122ZM98.2886 49V43.71H95.7686V42H102.849V43.71H100.269V49H98.2886ZM104.817 49V42H110.687V43.63H106.717V47.37H110.837V49H104.817ZM105.817 46.22V44.68H110.287V46.22H105.817Z" fill="#CCABD8"/>
<path d="M6.72996 40V19.7H12.472V40H6.72996ZM9.25296 32.779V28.168H21.897V32.779H9.25296ZM9.48496 24.659V19.7H23.028V24.659H9.48496ZM24.8976 40L34.1196 19.7H39.0206L48.2136 40H42.4426L37.7446 29.589C37.5319 29.125 37.3386 28.69 37.1646 28.284C37.0099 27.8587 36.8649 27.4527 36.7296 27.066C36.5942 26.6793 36.4589 26.2927 36.3236 25.906C36.2076 25.5 36.0916 25.0843 35.9756 24.659L37.0486 24.63C36.9132 25.094 36.7876 25.529 36.6716 25.935C36.5556 26.3217 36.4202 26.7083 36.2656 27.095C36.1109 27.4817 35.9466 27.878 35.7726 28.284C35.5986 28.69 35.4149 29.125 35.2216 29.589L30.5526 40H24.8976ZM29.3056 36.81L31.0456 32.75H42.0366L43.1676 36.81H29.3056ZM61.1025 40.29C59.4978 40.29 58.0381 40.1353 56.7235 39.826C55.4088 39.5167 54.2391 39.0913 53.2145 38.55C52.1898 38.0087 51.2715 37.39 50.4595 36.694L53.2435 32.489C54.6548 33.649 56.0661 34.4513 57.4775 34.896C58.8888 35.3213 60.2035 35.534 61.4215 35.534C61.9048 35.534 62.3785 35.4953 62.8425 35.418C63.3258 35.3213 63.7318 35.1667 64.0605 34.954C64.3891 34.7413 64.5535 34.432 64.5535 34.026C64.5535 33.7553 64.4665 33.533 64.2925 33.359C64.1185 33.1657 63.8768 33.011 63.5675 32.895C63.2775 32.7597 62.9295 32.6533 62.5235 32.576C62.1368 32.4793 61.7018 32.402 61.2185 32.344C60.7351 32.2667 60.2228 32.199 59.6815 32.141C58.4055 31.967 57.2648 31.706 56.2595 31.358C55.2541 31.01 54.4035 30.575 53.7075 30.053C53.0115 29.531 52.4798 28.922 52.1125 28.226C51.7645 27.5107 51.5905 26.689 51.5905 25.761C51.5905 24.7363 51.8321 23.818 52.3155 23.006C52.7988 22.1747 53.4755 21.4787 54.3455 20.918C55.2155 20.338 56.2111 19.903 57.3325 19.613C58.4731 19.323 59.6718 19.178 60.9285 19.178C62.4171 19.178 63.7125 19.3133 64.8145 19.584C65.9165 19.8353 66.8735 20.193 67.6855 20.657C68.4975 21.1017 69.1838 21.6043 69.7445 22.165L66.8445 25.79C66.3225 25.4033 65.7231 25.0747 65.0465 24.804C64.3891 24.5333 63.7028 24.3303 62.9875 24.195C62.2721 24.0403 61.5858 23.963 60.9285 23.963C60.2518 23.963 59.6621 24.0113 59.1595 24.108C58.6761 24.2047 58.2798 24.3593 57.9705 24.572C57.6805 24.7653 57.5355 25.036 57.5355 25.384C57.5355 25.6933 57.6805 25.9543 57.9705 26.167C58.2798 26.3603 58.6568 26.5247 59.1015 26.66C59.5655 26.776 60.0391 26.8727 60.5225 26.95C61.0251 27.008 61.4795 27.066 61.8855 27.124C63.0068 27.2593 64.0798 27.4527 65.1045 27.704C66.1485 27.9553 67.0668 28.313 67.8595 28.777C68.6715 29.2217 69.2998 29.821 69.7445 30.575C70.2085 31.329 70.4405 32.2957 70.4405 33.475C70.4405 34.925 70.0248 36.1623 69.1935 37.187C68.3815 38.1923 67.2698 38.9657 65.8585 39.507C64.4471 40.029 62.8618 40.29 61.1025 40.29ZM81.8789 40V24.659H74.5709V19.7H95.1029V24.659H87.6209V40H81.8789Z" fill="url(#paint0_linear_174_418)"/>
<rect x="6" y="43" width="35" height="2" rx="1" fill="#CCABD8"/>
<path d="M116.31 28.518L105.414 25.1381C104.82 24.954 104.18 24.954 103.586 25.1381L92.6897 28.518C91.7701 28.8031 91.7701 30.0308 92.6897 30.3159L94.5893 30.9051C94.1725 31.4253 93.9162 32.0599 93.8908 32.7548C93.5147 32.9725 93.2498 33.3653 93.2498 33.8342C93.2498 34.2593 93.4717 34.617 93.7912 34.8458L92.7939 39.3764C92.7072 39.7704 93.0041 40.1442 93.4037 40.1442H95.5955C95.9955 40.1442 96.2924 39.7704 96.2057 39.3764L95.2084 34.8458C95.5279 34.617 95.7498 34.2593 95.7498 33.8342C95.7498 33.3779 95.4971 32.9961 95.1381 32.7745C95.1678 32.1821 95.4678 31.6584 95.9463 31.3263L103.586 33.6961C103.94 33.8058 104.619 33.9426 105.414 33.6961L116.31 30.3163C117.23 30.0308 117.23 28.8035 116.31 28.518V28.518ZM105.781 34.9025C104.666 35.248 103.717 35.0571 103.219 34.9025L97.5537 33.1456L96.9998 37.6202C96.9998 39.0143 100.358 40.1442 104.5 40.1442C108.642 40.1442 112 39.0143 112 37.6202L111.446 33.1452L105.781 34.9025Z" fill="url(#paint1_linear_174_418)"/>
<defs>
<linearGradient id="paint0_linear_174_418" x1="50" y1="0" x2="50" y2="58" gradientUnits="userSpaceOnUse">
<stop offset="0.1875" stop-color="#FA897B"/>
<stop offset="0.848958" stop-color="#CCABD8" stop-opacity="0.85"/>
</linearGradient>
<linearGradient id="paint1_linear_174_418" x1="104.5" y1="25" x2="104.5" y2="40.1442" gradientUnits="userSpaceOnUse">
<stop stop-color="#FA897B"/>
<stop offset="1" stop-color="#CCABD8" stop-opacity="0.85"/>
</linearGradient>
</defs>
</svg>
