<svg width="70" height="70" viewBox="0 0 70 70" fill="none" xmlns="http://www.w3.org/2000/svg">
<path fill-rule="evenodd" clip-rule="evenodd" d="M47.1022 25.1212C47.1022 28.4524 45.7788 31.6473 43.4233 34.0028C41.0677 36.3584 37.8728 37.6818 34.5416 37.6818C31.2103 37.6818 28.0154 36.3584 25.6599 34.0028C23.3043 31.6473 21.981 28.4524 21.981 25.1212C21.981 21.7899 23.3043 18.595 25.6599 16.2395C28.0154 13.8839 31.2103 12.5605 34.5416 12.5605C37.8728 12.5605 41.0677 13.8839 43.4233 16.2395C45.7788 18.595 47.1022 21.7899 47.1022 25.1212ZM40.8219 25.1212C40.8219 26.7868 40.1602 28.3842 38.9824 29.562C37.8046 30.7398 36.2072 31.4015 34.5416 31.4015C32.8759 31.4015 31.2785 30.7398 30.1007 29.562C28.9229 28.3842 28.2613 26.7868 28.2613 25.1212C28.2613 23.4555 28.9229 21.8581 30.1007 20.6803C31.2785 19.5025 32.8759 18.8409 34.5416 18.8409C36.2072 18.8409 37.8046 19.5025 38.9824 20.6803C40.1602 21.8581 40.8219 23.4555 40.8219 25.1212Z" fill="url(#paint0_linear_182_223)"/>
<path fill-rule="evenodd" clip-rule="evenodd" d="M34.5417 0C15.4652 0 0 15.4652 0 34.5417C0 53.6181 15.4652 69.0833 34.5417 69.0833C53.6181 69.0833 69.0833 53.6181 69.0833 34.5417C69.0833 15.4652 53.6181 0 34.5417 0ZM6.2803 34.5417C6.2803 41.1046 8.51923 47.1462 12.2717 51.9444C14.907 48.4836 18.3068 45.679 22.2054 43.7496C26.104 41.8202 30.3959 40.8182 34.7458 40.822C39.0394 40.8179 43.2773 41.7939 47.1366 43.6757C50.9959 45.5574 54.3748 48.2953 57.0157 51.6806C59.7365 48.1122 61.5684 43.9471 62.3599 39.5301C63.1514 35.1131 62.8798 30.5711 61.5674 26.2799C60.255 21.9887 57.9396 18.0717 54.8129 14.853C51.6861 11.6343 47.8379 9.20648 43.5865 7.77033C39.3352 6.33418 34.8029 5.93103 30.3648 6.59423C25.9267 7.25744 21.7104 8.96793 18.0646 11.5842C14.4188 14.2004 11.4484 17.6472 9.39919 21.6394C7.34999 25.6316 6.28087 30.0543 6.2803 34.5417ZM34.5417 62.803C28.054 62.8128 21.7621 60.5809 16.7307 56.4851C18.7559 53.5859 21.4514 51.2188 24.588 49.5851C27.7245 47.9515 31.2093 47.0998 34.7458 47.1023C38.2381 47.0995 41.6808 47.9299 44.7878 49.5247C47.8947 51.1194 50.5764 53.4324 52.6101 56.2715C47.5397 60.5004 41.1441 62.8123 34.5417 62.803Z" fill="url(#paint1_linear_182_223)"/>
<defs>
<linearGradient id="paint0_linear_182_223" x1="34.5416" y1="12.5605" x2="34.5416" y2="37.6818" gradientUnits="userSpaceOnUse">
<stop stop-color="#FA897B"/>
<stop offset="1" stop-color="#CCABD8"/>
</linearGradient>
<linearGradient id="paint1_linear_182_223" x1="34.5417" y1="0" x2="34.5417" y2="69.0833" gradientUnits="userSpaceOnUse">
<stop stop-color="#FA897B"/>
<stop offset="1" stop-color="#CCABD8"/>
</linearGradient>
</defs>
</svg>
